<!DOCTYPE svg PUBLIC "-//W3C//DTD SVG 1.1//EN" "http://www.w3.org/Graphics/SVG/1.1/DTD/svg11.dtd">
<!-- Uploaded to: SVG Find, www.svgrepo.com, Transformed by: SVG Find Mixer Tools -->
<svg fill="#74659a" width="800px" height="800px" version="1.1" viewBox="144 144 512 512" xmlns="http://www.w3.org/2000/svg" stroke="#74659a">
<g id="SVGRepo_bgCarrier" stroke-width="0"/>
<g id="SVGRepo_tracerCarrier" stroke-linecap="round" stroke-linejoin="round" stroke="#74659a" stroke-width="17.408"> <g> <path d="m400 242.56c-61.57 0-115.77 29.578-154.77 62.762-19.496 16.59-35.262 34.152-46.496 50.184s-18.91 28.996-18.91 44.496c0 15.516 7.7344 27.777 18.941 43.664 11.207 15.891 26.957 33.508 46.434 50.215 38.953 33.414 93.129 63.559 154.8 63.559 61.566 0 115.77-29.559 154.77-62.73 19.496-16.586 35.258-34.148 46.492-50.184 11.234-16.039 18.91-29.027 18.91-44.527s-7.6797-28.465-18.91-44.496c-11.234-16.031-26.996-33.594-46.492-50.184-38.996-33.18-93.199-62.758-154.77-62.758zm0 31.488c51.332 0 99.352 25.48 134.35 55.258 17.496 14.891 31.656 30.785 41.113 44.281 9.457 13.496 13.223 26.133 13.223 26.414 0 0.31641-3.7695 12.949-13.223 26.445-9.4531 13.496-23.617 29.395-41.113 44.281-34.996 29.766-83.016 55.223-134.35 55.223-51.238 0-99.254-25.941-134.29-55.996-17.516-15.023-31.719-30.984-41.203-44.434-9.4844-13.445-13.191-26.277-13.191-25.52 0-0.27734 3.7656-12.922 13.223-26.414 9.4531-13.496 23.617-29.395 41.113-44.281 34.992-29.777 83.016-55.258 134.35-55.258z"/> <path d="m400 305.54c-51.984 0-94.465 42.48-94.465 94.465s42.48 94.465 94.465 94.465 94.465-42.48 94.465-94.465-42.48-94.465-94.465-94.465zm0 31.488c34.969 0 62.977 28.008 62.977 62.977s-28.008 62.977-62.977 62.977-62.977-28.008-62.977-62.977 28.008-62.977 62.977-62.977z"/> </g> </g>
<g id="SVGRepo_iconCarrier"> <g> <path d="m400 242.56c-61.57 0-115.77 29.578-154.77 62.762-19.496 16.59-35.262 34.152-46.496 50.184s-18.91 28.996-18.91 44.496c0 15.516 7.7344 27.777 18.941 43.664 11.207 15.891 26.957 33.508 46.434 50.215 38.953 33.414 93.129 63.559 154.8 63.559 61.566 0 115.77-29.559 154.77-62.73 19.496-16.586 35.258-34.148 46.492-50.184 11.234-16.039 18.91-29.027 18.91-44.527s-7.6797-28.465-18.91-44.496c-11.234-16.031-26.996-33.594-46.492-50.184-38.996-33.18-93.199-62.758-154.77-62.758zm0 31.488c51.332 0 99.352 25.48 134.35 55.258 17.496 14.891 31.656 30.785 41.113 44.281 9.457 13.496 13.223 26.133 13.223 26.414 0 0.31641-3.7695 12.949-13.223 26.445-9.4531 13.496-23.617 29.395-41.113 44.281-34.996 29.766-83.016 55.223-134.35 55.223-51.238 0-99.254-25.941-134.29-55.996-17.516-15.023-31.719-30.984-41.203-44.434-9.4844-13.445-13.191-26.277-13.191-25.52 0-0.27734 3.7656-12.922 13.223-26.414 9.4531-13.496 23.617-29.395 41.113-44.281 34.992-29.777 83.016-55.258 134.35-55.258z"/> <path d="m400 305.54c-51.984 0-94.465 42.48-94.465 94.465s42.48 94.465 94.465 94.465 94.465-42.48 94.465-94.465-42.48-94.465-94.465-94.465zm0 31.488c34.969 0 62.977 28.008 62.977 62.977s-28.008 62.977-62.977 62.977-62.977-28.008-62.977-62.977 28.008-62.977 62.977-62.977z"/> </g> </g>
</svg>