<svg xmlns="http://www.w3.org/2000/svg" width="128" height="128" viewBox="0 0 128 128">
  <title>FINGERPRINT</title>
  <g>
    <g>
      <path d="M32.875,38.25a1.749,1.749,0,0,1-1.75-1.75V24.651a1.75,1.75,0,0,1,1.75-1.75H44.724a1.75,1.75,0,0,1,0,3.5h-10.1V36.5A1.75,1.75,0,0,1,32.875,38.25Z" fill="#fda506"/>
      <path d="M95.125,38.25a1.749,1.749,0,0,1-1.75-1.75V26.4h-10.1a1.75,1.75,0,0,1,0-3.5H95.125a1.751,1.751,0,0,1,1.75,1.75V36.5A1.75,1.75,0,0,1,95.125,38.25Z" fill="#fda506"/>
      <path d="M44.724,105.1H32.875a1.75,1.75,0,0,1-1.75-1.75V91.5a1.75,1.75,0,0,1,3.5,0v10.1h10.1a1.75,1.75,0,1,1,0,3.5Z" fill="#fda506"/>
      <path d="M95.125,105.1H83.276a1.75,1.75,0,0,1,0-3.5h10.1V91.5a1.75,1.75,0,0,1,3.5,0v11.849A1.751,1.751,0,0,1,95.125,105.1Z" fill="#fda506"/>
    </g>
    <g>
      <path d="M64,92.588A20.713,20.713,0,0,1,43.31,71.9V56.1a20.7,20.7,0,0,1,4.853-13.314,1.75,1.75,0,1,0-2.678-2.254A24.2,24.2,0,0,0,39.81,56.1V71.9A24.218,24.218,0,0,0,64,96.088a1.75,1.75,0,0,0,0-3.5Z" fill="#fda506"/>
      <path d="M51.484,39.225a1.75,1.75,0,0,0,.976-.3q.366-.246.743-.478a1.75,1.75,0,0,0-1.822-2.988q-.444.272-.875.561a1.751,1.751,0,0,0,.978,3.2Z" fill="#fda506"/>
      <path d="M88.19,71.9V56.1A24.208,24.208,0,0,0,57.333,32.843a1.75,1.75,0,0,0,.963,3.365A20.708,20.708,0,0,1,84.69,56.1V71.9A20.6,20.6,0,0,1,73.278,90.4a1.75,1.75,0,1,0,1.573,3.127A24.08,24.08,0,0,0,88.19,71.9Z" fill="#fda506"/>
      <path d="M47.81,56.1V71.9a16.005,16.005,0,0,0,1.7,7.225,1.75,1.75,0,0,0,3.13-1.566A12.527,12.527,0,0,1,51.31,71.9V56.1a12.688,12.688,0,0,1,5.6-10.52,1.75,1.75,0,0,0-1.961-2.9A16.19,16.19,0,0,0,47.81,56.1Z" fill="#fda506"/>
      <path d="M78.44,70.148a1.751,1.751,0,0,0-1.75,1.75A12.684,12.684,0,0,1,56.673,82.253a1.75,1.75,0,0,0-2.027,2.853A16.183,16.183,0,0,0,80.19,71.9,1.751,1.751,0,0,0,78.44,70.148Z" fill="#fda506"/>
      <path d="M80.19,64.833a1.75,1.75,0,0,0-3.5,0v1.042a1.75,1.75,0,0,0,3.5,0Z" fill="#fda506"/>
      <path d="M80.19,56.1A16.209,16.209,0,0,0,64,39.912a1.75,1.75,0,0,0,0,3.5A12.7,12.7,0,0,1,76.69,56.1v2.4a1.75,1.75,0,0,0,3.5,0Z" fill="#fda506"/>
      <path d="M55.81,56.1V71.9a8.19,8.19,0,0,0,16.38,0,1.75,1.75,0,0,0-3.5,0,4.69,4.69,0,0,1-9.38,0V56.1a4.69,4.69,0,0,1,9.38,0V64a1.75,1.75,0,0,0,3.5,0V56.1a8.19,8.19,0,0,0-16.38,0Z" fill="#fda506"/>
      <path d="M32.875,38.25a1.75,1.75,0,0,0,1.75-1.75V26.4h10.1a1.75,1.75,0,0,0,0-3.5H32.875a1.751,1.751,0,0,0-1.75,1.75V36.5A1.75,1.75,0,0,0,32.875,38.25Z" fill="#fda506"/>
      <path d="M95.125,22.9H83.276a1.75,1.75,0,0,0,0,3.5h10.1V36.5a1.75,1.75,0,0,0,3.5,0V24.651A1.751,1.751,0,0,0,95.125,22.9Z" fill="#fda506"/>
      <path d="M44.724,101.6h-10.1V91.5a1.75,1.75,0,0,0-3.5,0v11.849a1.751,1.751,0,0,0,1.75,1.75H44.724a1.75,1.75,0,1,0,0-3.5Z" fill="#fda506"/>
      <path d="M95.125,89.75a1.75,1.75,0,0,0-1.75,1.75v10.1h-10.1a1.75,1.75,0,0,0,0,3.5H95.125a1.751,1.751,0,0,0,1.75-1.75V91.5A1.75,1.75,0,0,0,95.125,89.75Z" fill="#fda506"/>
    </g>
  </g>
</svg>

