<!DOCTYPE svg PUBLIC "-//W3C//DTD SVG 1.1//EN" "http://www.w3.org/Graphics/SVG/1.1/DTD/svg11.dtd">
<!-- Uploaded to: SVG Find, www.svgrepo.com, Transformed by: SVG Find Mixer Tools -->
<svg fill="#74659a" width="800px" height="800px" version="1.1" viewBox="144 144 512 512" xmlns="http://www.w3.org/2000/svg" stroke="#74659a">
<g id="SVGRepo_bgCarrier" stroke-width="0"/>
<g id="SVGRepo_tracerCarrier" stroke-linecap="round" stroke-linejoin="round"/>
<g id="SVGRepo_iconCarrier"> <g> <path d="m400 190.08c-57.785 0-104.96 47.176-104.96 104.96v83.969l-7.625-0.003906c-30.297 0.003906-55.352 25.055-55.352 55.352v120.21c0 30.301 25.055 55.352 55.352 55.352h225.17c30.297 0 55.348-25.051 55.348-55.348v-120.21c0-30.297-25.051-55.348-55.348-55.348h-7.6289v-83.969c0-57.785-47.176-104.96-104.96-104.96zm0 41.984c35.25 0 62.977 27.723 62.977 62.977v83.969h-125.95v-83.969c0-35.25 27.723-62.977 62.977-62.977z"/> <path d="m287.41 420.99c74.836 0.47266 150.5 0 225.17 0 7.7617 0.003907 13.363 5.6055 13.363 13.367v120.21c0 7.7656-5.6016 13.367-13.363 13.367h-225.17c-7.7656 0-13.367-5.6016-13.367-13.363v-120.21c0-7.7617 5.6016-13.363 13.367-13.363z"/> </g> </g>
</svg>